<svg xmlns="http://www.w3.org/2000/svg" viewBox="0 0 253 83.4">
  <path fill="gray" d="M130.3 24s19.4-20.9 52-18.8c24.2 1.5 14.1 22.8-7.8 28.1-20.7 5-45.3 4.6-80.1-.1-46.1-6.3-72.1.3-73.7 16-2.1 20 40.3 21.1 63.2 13.9-8.1 4.7-38.6 14.9-63.5 3.2C-7.9 53 13 23.7 52.4 22.2c29.4-1.1 57.8 7 95.5 7.9 38.3 1 53.6-19.6 32.6-21.4C153.4 6.4 130.3 24 130.3 24"/>
  <path d="m36.89 52.5-1 3.6H32.6l4.29-14.03h4.16L45.4 56.1H42l-1.08-3.6zm3.56-2.37-.88-2.98c-.25-.83-.5-1.88-.7-2.7h-.05c-.2.82-.41 1.88-.64 2.7l-.84 2.98zm6.59-8.81h3.17V56.1h-3.17zm5.73 0h3.16V56.1h-3.16zm8.99 1.77c0 .87-.67 1.58-1.71 1.58-1 0-1.66-.7-1.64-1.58-.03-.92.64-1.6 1.66-1.6s1.67.68 1.69 1.6m-3.27 13V45.93h3.16V56.1zm14.19-2.47c0 .98.05 1.92.15 2.48h-2.85l-.19-1.02h-.06a3.7 3.7 0 0 1-2.92 1.25c-2.06 0-3.29-1.5-3.29-3.12 0-2.65 2.38-3.92 5.98-3.9v-.14c0-.54-.3-1.31-1.85-1.31-1.04 0-2.15.35-2.81.77l-.59-2.04c.71-.4 2.1-.9 3.96-.9 3.4 0 4.47 2 4.47 4.4zM69.6 51.3c-1.66-.02-2.95.37-2.95 1.6 0 .81.54 1.21 1.25 1.21.79 0 1.43-.52 1.64-1.17q.06-.25.06-.54zm5.58-2.13q-.01-1.9-.08-3.25h2.74l.15 1.4h.06a3.7 3.7 0 0 1 3.15-1.63c2.08 0 3.64 1.38 3.64 4.37v6.04h-3.16v-5.64c0-1.31-.46-2.2-1.6-2.2-.88 0-1.4.6-1.61 1.18-.08.2-.13.5-.13.79v5.87h-3.16zm19.83 6.68c-.56.25-1.62.48-2.83.48-3.29 0-5.39-2.02-5.39-5.23 0-2.97 2.04-5.4 5.83-5.4.83 0 1.75.14 2.41.39l-.5 2.35a4 4 0 0 0-1.76-.31c-1.67 0-2.75 1.18-2.73 2.85 0 1.87 1.25 2.85 2.79 2.85q1.1 0 1.81-.33zm3.96-3.83c.1 1.31 1.4 1.93 2.87 1.93 1.08 0 1.96-.14 2.81-.41l.42 2.14a10 10 0 0 1-3.69.65c-3.45 0-5.43-2.02-5.43-5.2 0-2.59 1.6-5.44 5.14-5.44 3.29 0 4.54 2.56 4.54 5.08a8 8 0 0 1-.1 1.25zm3.72-2.17c0-.77-.33-2.06-1.79-2.06-1.33 0-1.87 1.21-1.95 2.06zm9.39 6.25v-7.85h-1.34v-2.33h1.34v-.4c0-1.22.37-2.58 1.29-3.41a4 4 0 0 1 2.8-1.02q1.06.01 1.7.2l-.13 2.44q-.4-.13-1.02-.14c-1.04 0-1.48.8-1.48 1.8v.53h2.04v2.33h-2.02v7.85zm16.59-5.2c0 3.72-2.65 5.43-5.37 5.43-2.98 0-5.27-1.96-5.27-5.25s2.17-5.39 5.43-5.39c3.13 0 5.2 2.15 5.2 5.2m-7.37.1c0 1.75.73 3.06 2.08 3.06 1.23 0 2.02-1.23 2.02-3.06 0-1.52-.58-3.06-2.02-3.06-1.52 0-2.08 1.56-2.08 3.06m9.33-1.72c0-1.5-.04-2.48-.08-3.35h2.72l.1 1.87h.1a3 3 0 0 1 3.4-2.06v3q-.33-.1-.85-.1c-1.16 0-1.95.62-2.16 1.6q-.06.32-.06.7v5.17h-3.17zm20.56.9h-5.16v3.33h5.77v2.6h-8.95V42.07h8.66v2.6h-5.48v2.91h5.16zm2.67-1q-.02-1.9-.09-3.25h2.75l.15 1.4h.06a3.7 3.7 0 0 1 3.14-1.63c2.08 0 3.64 1.38 3.64 4.37v6.04h-3.16v-5.64c0-1.31-.46-2.2-1.6-2.2-.88 0-1.4.6-1.6 1.18-.09.2-.13.5-.13.79v5.87h-3.16zm14.63 2.85c.1 1.31 1.4 1.93 2.87 1.93 1.08 0 1.96-.14 2.8-.41l.42 2.14a10 10 0 0 1-3.68.65c-3.45 0-5.43-2.02-5.43-5.2 0-2.59 1.6-5.44 5.14-5.44 3.29 0 4.54 2.56 4.54 5.08a8 8 0 0 1-.1 1.25zm3.72-2.17c0-.77-.33-2.06-1.79-2.06-1.33 0-1.87 1.21-1.95 2.06zm4.83-.58c0-1.5-.04-2.48-.08-3.35h2.72l.1 1.87h.09a3 3 0 0 1 3.41-2.06v3q-.33-.1-.85-.1c-1.16 0-1.96.62-2.16 1.6q-.06.32-.07.7v5.17h-3.16zm17.37 5.35c0 1.96-.39 3.56-1.53 4.58-1.13.96-2.65 1.25-4.14 1.25a8 8 0 0 1-3.67-.8l.63-2.38a6 6 0 0 0 2.95.76c1.5 0 2.65-.8 2.65-2.68v-.67h-.04a3.3 3.3 0 0 1-2.75 1.34c-2.52 0-4.31-2.04-4.31-4.98 0-3.27 2.12-5.35 4.62-5.35 1.4 0 2.27.6 2.79 1.44h.04l.1-1.21h2.75c-.04.64-.08 1.5-.08 3.02zm-3.16-4.56q0-.31-.06-.58c-.23-.83-.83-1.4-1.7-1.4-1.15 0-2.09 1.05-2.09 2.9 0 1.52.75 2.7 2.09 2.7.8 0 1.45-.54 1.66-1.29.08-.22.1-.56.1-.83zm8.08-4.14 1.52 5c.16.6.37 1.35.5 1.89h.06c.15-.54.31-1.31.46-1.9l1.25-4.99h3.39l-2.37 6.7c-1.46 4.04-2.44 5.67-3.58 6.69a6 6 0 0 1-3.06 1.39l-.67-2.69a4 4 0 0 0 1.37-.54c.48-.25 1-.75 1.32-1.27q.16-.22.16-.45.02-.15-.14-.52l-3.73-9.31zm-91.03 16.24V76.2h-3.19V62.16zm2.71 7.1q0-1.9-.09-3.25h2.76l.14 1.4h.06a3.7 3.7 0 0 1 3.15-1.63c2.08 0 3.65 1.38 3.65 4.38v6.04h-3.17v-5.65c0-1.3-.46-2.2-1.6-2.2-.88 0-1.4.6-1.6 1.18q-.14.33-.13.8v5.87H111zm12.21 0q-.01-1.9-.08-3.25h2.75l.15 1.4h.06a3.7 3.7 0 0 1 3.14-1.63c2.09 0 3.65 1.38 3.65 4.38v6.04h-3.17v-5.65c0-1.3-.45-2.2-1.6-2.2-.87 0-1.4.6-1.6 1.18q-.13.33-.13.8v5.87h-3.17zM145.5 71c0 3.72-2.65 5.43-5.38 5.43-2.98 0-5.28-1.96-5.28-5.25s2.17-5.4 5.44-5.4a4.95 4.95 0 0 1 5.21 5.21m-7.39.1c0 1.75.73 3.06 2.09 3.06 1.23 0 2.02-1.23 2.02-3.06 0-1.52-.58-3.07-2.02-3.07-1.52 0-2.09 1.57-2.09 3.07m11.52-5.08 1.37 4.73q.37 1.28.59 2.48h.06c.17-.83.33-1.6.56-2.48l1.32-4.73h3.33l-3.8 10.2h-3.16L146.2 66zm17.05 7.71c0 .98.04 1.92.14 2.48h-2.85l-.19-1.02h-.06a3.7 3.7 0 0 1-2.92 1.25c-2.06 0-3.3-1.5-3.3-3.12 0-2.65 2.38-3.92 5.99-3.9v-.15c0-.54-.3-1.31-1.86-1.31-1.04 0-2.14.36-2.8.77l-.6-2.04c.72-.4 2.11-.9 3.97-.9 3.4 0 4.48 2 4.48 4.4zm-3.09-2.33c-1.66-.02-2.95.37-2.95 1.6 0 .81.54 1.21 1.25 1.21.79 0 1.43-.52 1.64-1.17q.06-.25.06-.54zm8.97-8.15v2.77h2.27v2.33h-2.27v3.7c0 1.22.29 1.79 1.25 1.79.43 0 .62-.02.93-.09l.03 2.4c-.42.17-1.17.3-2.07.3a3.3 3.3 0 0 1-2.37-.9c-.59-.61-.88-1.59-.88-3.03v-4.16h-1.35V66h1.35v-1.9zm7.38-.06c0 .87-.67 1.58-1.71 1.58-1 0-1.67-.7-1.65-1.58-.02-.92.65-1.6 1.67-1.6s1.66.68 1.69 1.6m-3.28 13.02V66.01h3.17v10.2zm15.78-5.2c0 3.72-2.65 5.43-5.38 5.43-2.98 0-5.27-1.96-5.27-5.25s2.17-5.4 5.44-5.4c3.12 0 5.2 2.15 5.2 5.21m-7.38.1c0 1.75.73 3.06 2.08 3.06 1.23 0 2.03-1.23 2.03-3.06 0-1.52-.59-3.07-2.03-3.07-1.52 0-2.08 1.57-2.08 3.07m9.35-1.83q-.01-1.9-.08-3.25h2.75l.14 1.4h.07a3.7 3.7 0 0 1 3.14-1.63c2.09 0 3.65 1.38 3.65 4.38v6.04h-3.17v-5.65c0-1.3-.46-2.2-1.6-2.2-.88 0-1.4.6-1.6 1.18q-.13.33-.13.8v5.87h-3.17zm10.99 9.42a35 35 0 0 0 1.5-5.92l3.23-.2a29 29 0 0 1-2.63 5.93zm10.96-16.52h3.19v11.37h5.58v2.67h-8.77zm10.65 0h3.19v11.37h5.58v2.67H227zm20.17 13.64c-.58.3-1.9.63-3.6.63-4.86 0-7.36-3.04-7.36-7.04 0-4.8 3.42-7.46 7.67-7.46 1.64 0 2.9.33 3.46.62l-.65 2.52a7 7 0 0 0-2.67-.52c-2.52 0-4.48 1.52-4.48 4.65 0 2.81 1.67 4.58 4.5 4.58.96 0 2.03-.2 2.65-.45z"/>
</svg>
